<svg viewBox="14.72 19.2 34.176 37.504" xmlns:xlink="http://www.w3.org/1999/xlink" xmlns="http://www.w3.org/2000/svg" version="1.1" style="max-height: 500px" width="34.176" height="37.504">
    <defs>
        <filter height="200%" width="200%">
            <feGaussianBlur stdDeviation="3" in="SourceAlpha"/>
            <feOffset result="offsetblur" dy="4" dx="0"/>
            <feComponentTransfer>
                <feFuncA type="linear"/>
            </feComponentTransfer>
            <feMerge> 
                <feMergeNode/>
                <feMergeNode in="SourceGraphic"/> 
            </feMerge>
        </filter>
        <style type="text/css">
/*
** SNOW
*/
@keyframes am-weather-snow {
  0% {
    -webkit-transform: translate(0.0px,0);
       -moz-transform: translate(0.0px,0);
        -ms-transform: translate(0.0px,0);
            transform: translate(0.0px,0);
  }

  33.33% {
    -webkit-transform: translate(-1.2px,2px);
       -moz-transform: translate(-1.2px,2px);
        -ms-transform: translate(-1.2px,2px);
            transform: translate(-1.2px,2px);
  }

  66.66% {
    -webkit-transform: translate(1.4px,4px);
       -moz-transform: translate(1.4px,4px);
        -ms-transform: translate(1.4px,4px);
            transform: translate(1.4px,4px);
    opacity: 1;
  }

  100% {
    -webkit-transform: translate(-1.6px,6px);
       -moz-transform: translate(-1.6px,6px);
        -ms-transform: translate(-1.6px,6px);
            transform: translate(-1.6px,6px);
    opacity: 0;
  }
}

.am-weather-snow-1 {
  -webkit-animation-name: am-weather-snow;
     -moz-animation-name: am-weather-snow;
      -ms-animation-name: am-weather-snow;
          animation-name: am-weather-snow;
  -webkit-animation-duration: 2s;
     -moz-animation-duration: 2s;
      -ms-animation-duration: 2s;
          animation-duration: 2s;
  -webkit-animation-timing-function: linear;
     -moz-animation-timing-function: linear;
      -ms-animation-timing-function: linear;
          animation-timing-function: linear;
  -webkit-animation-iteration-count: infinite;
     -moz-animation-iteration-count: infinite;
      -ms-animation-iteration-count: infinite;
          animation-iteration-count: infinite;
}

        </style>
    </defs>
    <g id="snowy-4" filter="url(#blur)">
        <g transform="translate(20,10)">
            <g>
                <path transform="translate(-20,-11)" stroke-width="1.2" stroke-linejoin="round" stroke="white" fill="#57A0EE" d="M47.7,35.4c0-4.6-3.7-8.2-8.2-8.2c-1,0-1.9,0.2-2.8,0.5c-0.3-3.4-3.1-6.2-6.6-6.2c-3.7,0-6.7,3-6.7,6.7c0,0.8,0.2,1.6,0.4,2.3    c-0.3-0.1-0.7-0.1-1-0.1c-3.7,0-6.7,3-6.7,6.7c0,3.6,2.9,6.6,6.5,6.7l17.2,0C44.2,43.3,47.7,39.8,47.7,35.4z"/>
            </g>
            <g class="am-weather-snow-1">
                <g transform="translate(11,28)">
                    <line y2="2.5" y1="-2.5" x2="0" x1="0" transform="translate(0,9), rotate(0)" stroke-width="1.2" stroke-linecap="round" stroke="#57A0EE" fill="none"/>
                    <line y2="2.5" y1="-2.5" x2="0" x1="0" transform="translate(0,9), rotate(45)" stroke-width="1" stroke-linecap="round" stroke="#57A0EE" fill="none"/>
                    <line y2="2.5" y1="-2.5" x2="0" x1="0" transform="translate(0,9), rotate(90)" stroke-width="1" stroke-linecap="round" stroke="#57A0EE" fill="none"/>
                    <line y2="2.5" y1="-2.5" x2="0" x1="0" transform="translate(0,9), rotate(135)" stroke-width="1" stroke-linecap="round" stroke="#57A0EE" fill="none"/>
                </g>
            </g>
        </g>
    </g>
</svg>