<svg xmlns="http://www.w3.org/2000/svg" width="50" height="50" viewBox="0 0 50 50"><defs><style>.b{fill:#c9c9c9}</style></defs><path d="M36.108 27.699a13.822 13.822 0 01-13.807-13.806 13.716 13.716 0 018.576-12.781 15.26 15.26 0 00-.318 3.1 15.244 15.244 0 0015.226 15.227 15.249 15.249 0 003.1-.318 13.715 13.715 0 01-12.777 8.578z" fill="#fff"/><path class="b" d="M29.959 2.332a16 16 0 00-.111 1.882 15.955 15.955 0 0015.937 15.937 15.994 15.994 0 001.883-.111 13.237 13.237 0 01-3.689 4.318 12.976 12.976 0 01-7.871 2.629 13.111 13.111 0 01-13.1-13.1 12.975 12.975 0 012.629-7.87 13.241 13.241 0 014.319-3.689M31.891 0a14.521 14.521 0 00-10.3 13.892 14.517 14.517 0 0014.517 14.517A14.521 14.521 0 0050 18.109a14.511 14.511 0 01-4.215.624A14.516 14.516 0 0131.269 4.216 14.514 14.514 0 0131.891 0zM6.036 45.712l-2.315 2.314a1.172 1.172 0 00-.048 1.655 1.172 1.172 0 001.655-.048l2.314-2.315a1.172 1.172 0 00.048-1.655 1.172 1.172 0 00-1.654.049zm24.382-.049a1.172 1.172 0 00-1.655.048l-2.314 2.314a1.172 1.172 0 00-.048 1.655 1.172 1.172 0 001.655-.048l2.315-2.315a1.172 1.172 0 00.047-1.654zm-9.231.049l-2.314 2.314a1.171 1.171 0 00-.048 1.655 1.172 1.172 0 001.655-.048l2.314-2.315a1.172 1.172 0 00.048-1.655 1.172 1.172 0 00-1.655.049z"/><path d="M10.248 42.425h-.2a9.444 9.444 0 01-9.342-9.417 9.43 9.43 0 019.419-9.419l.781.017.118-.581a9.443 9.443 0 019.231-7.539 9.418 9.418 0 019.4 8.884l.044.774.768-.112a8.877 8.877 0 011.266-.092 8.754 8.754 0 018.744 8.744 8.754 8.754 0 01-8.744 8.744z" fill="#f2f2f2"/><path class="b" d="M20.259 16.193a8.708 8.708 0 018.694 8.213l.087 1.549 1.535-.223a8.119 8.119 0 011.164-.085 8.043 8.043 0 018.033 8.034 8.043 8.043 0 01-8.033 8.034H10.057a8.732 8.732 0 01-8.637-8.707 8.718 8.718 0 018.708-8.709h.173l1.186.024.235-1.163a8.73 8.73 0 018.535-6.97m0-1.42a10.133 10.133 0 00-9.927 8.109c-.068 0-.134-.005-.2-.005A10.129 10.129 0 000 33.006a10.128 10.128 0 0010.046 10.128h21.693a9.454 9.454 0 009.454-9.454 9.454 9.454 0 00-9.454-9.454 9.487 9.487 0 00-1.368.1 10.129 10.129 0 00-10.112-9.553z"/><g><path d="M14.79 41.394l-1.72-1.12 6.26-5.487-2.981 4.448 2.563 1.284-7.132 6.23z" fill="#ffe269"/><path d="M15.723 38.893l-.413.616 1.441.722.9.449-3.226 2.818.661-1.175.652-1.16-1.115-.726-.377-.245 1.48-1.3m7.213-8.211L11.9 40.357l1.948 1.268-4.708 8.374 11.039-9.642-2.789-1.4 5.549-8.28z" fill="#fecb2f"/></g></svg>