<svg xmlns="http://www.w3.org/2000/svg" width="50" height="50" viewBox="0 0 50 50"><defs><style>.a{fill:#c9c9c9}</style></defs><path class="a" d="M12.146 34.915a1.172 1.172 0 01-1.655.048 1.172 1.172 0 01.048-1.655l2.314-2.314a1.172 1.172 0 011.655-.048 1.172 1.172 0 01-.048 1.655zm25 0a1.172 1.172 0 01-1.655.048 1.171 1.171 0 01.048-1.655l2.314-2.315a1.172 1.172 0 011.655-.048 1.172 1.172 0 01-.048 1.655zm-16.667 0a1.171 1.171 0 01-1.655.048 1.172 1.172 0 01.048-1.655l2.314-2.314a1.172 1.172 0 011.655-.048 1.171 1.171 0 01-.048 1.655zm8.334 0a1.172 1.172 0 01-1.655.048 1.171 1.171 0 01.048-1.655l2.314-2.315a1.172 1.172 0 011.655-.048 1.172 1.172 0 01-.048 1.655zm-16.667 7.954a1.172 1.172 0 01-1.655.048 1.172 1.172 0 01.048-1.655l2.314-2.314a1.172 1.172 0 011.655-.048 1.172 1.172 0 01-.048 1.655zm25 0a1.172 1.172 0 01-1.655.048 1.171 1.171 0 01.048-1.655l2.314-2.315a1.172 1.172 0 011.655-.048 1.172 1.172 0 01-.048 1.655zm-16.667 0a1.171 1.171 0 01-1.655.048 1.172 1.172 0 01.048-1.655l2.314-2.314a1.172 1.172 0 011.655-.048 1.171 1.171 0 01-.048 1.655zm8.334.001a1.172 1.172 0 01-1.655.048 1.171 1.171 0 01.048-1.655l2.314-2.315a1.172 1.172 0 011.655-.048 1.172 1.172 0 01-.048 1.655zm-1.804 2.792a1.172 1.172 0 00-1.655.048l-2.314 2.315a1.172 1.172 0 00-.048 1.655 1.172 1.172 0 001.655-.048l2.314-2.314a1.172 1.172 0 00.048-1.656z"/><path d="M43.466 27.699c-.106 0-.211 0-.315-.009H32.172c-.118 0-.235.009-.354.009H10.227A9.528 9.528 0 01.71 18.182c0-.163 0-.324.012-.485 0-.032 0-.061.006-.089l.009-.119c.006-.091.012-.182.021-.272 0-.037.034-.275.034-.275.008-.066.015-.132.025-.2l.037-.212.013-.078.031-.176c.011-.059.02-.09.03-.136l.037-.161.037-.159c.013-.052.026-.1.04-.145l.042-.15.043-.149c.015-.049.035-.107.053-.16l.046-.138c.015-.046.03-.093.047-.138.024-.066.049-.13.075-.195l.045-.115c.015-.039.03-.079.047-.117.027-.065.056-.129.085-.193l.1-.226c.034-.071.07-.142.107-.214l.1-.191c.043-.081.09-.162.137-.242l.085-.149c.051-.084.1-.166.155-.248l.086-.134c.056-.085.115-.167.173-.249l.084-.118c.063-.086.128-.168.192-.251l.082-.1c.069-.085.139-.168.211-.249l.079-.091c.077-.086.153-.168.231-.249l.076-.08a9.55 9.55 0 01.249-.244l.07-.067c.089-.083.178-.162.268-.239l.064-.057c.1-.082.192-.159.289-.234l.061-.048c.1-.078.2-.153.307-.226l.033-.024a9.05 9.05 0 01.346-.231l.031-.02c.13-.082.244-.151.36-.217l.025-.014c.135-.077.255-.141.376-.2l.034-.018c.128-.064.253-.124.38-.182l.043-.02c.115-.051.246-.106.379-.159a10.782 10.782 0 01.874-.296 8.534 8.534 0 01.904-.21 8.951 8.951 0 01.937-.122c.155-.013.318-.021.474-.026h.566l.114-.561a9.451 9.451 0 01.815-2.237c.068-.132.128-.241.189-.348l.016-.029c.062-.108.126-.215.193-.321l.006-.009a9.537 9.537 0 01.926-1.237l.019-.022c.073-.082.147-.162.223-.241l.067-.071c.069-.071.141-.142.213-.213l.085-.08a9.87 9.87 0 01.217-.2l.094-.081c.073-.063.147-.126.223-.188l.082-.064c.251-.2.512-.386.778-.557l.14-.09c.059-.036.117-.07.175-.1l.2-.116.2-.106.188-.1c.064-.035.127-.063.192-.093l.209-.094.029-.013c.052-.023.1-.046.156-.067.08-.034.159-.063.237-.093l.167-.064c.131-.047.266-.093.4-.136l.111-.032c.105-.031.208-.062.312-.089l.163-.04a8.07 8.07 0 01.269-.062l.177-.035q.133-.026.266-.047l.179-.027c.093-.014.186-.025.278-.036l.171-.019c.1-.01.205-.017.307-.023l.149-.01c.153-.007.306-.012.46-.012s.308 0 .462.012l.153.01c.1.007.2.013.3.023l.179.02c.092.011.183.022.274.035l.184.029c.087.014.174.03.26.046l.185.038c.086.018.17.038.255.059l.181.045c.083.022.166.047.249.071a8.414 8.414 0 01.743.252l.05.02c.062.024.124.047.185.073l.156.069s.187.083.233.105c.075.036.147.071.219.108l.162.083.224.122.14.08c.079.046.157.093.233.141l.111.071c.084.054.168.109.251.166l.042.03a9.62 9.62 0 011.471 1.266l.059.062a9.5 9.5 0 012.543 6.053l.065 1.469 1.11-.965a6.619 6.619 0 013.692-1.6 6.79 6.79 0 011.367 0 6.653 6.653 0 015.992 6.642v.1l-.007.853.84-.148a5.865 5.865 0 011.016-.09 5.83 5.83 0 015.824 5.824 5.843 5.843 0 01-5.386 5.805l-.144.011c-.099-.006-.197-.003-.295-.003z" fill="#f2f2f2"/><path class="a" d="M19.886 1.42c.133 0 .273 0 .43.011h.059l.079.005c.094.006.187.012.282.021l.116.013.05.006c.085.009.169.02.248.031l.175.028c.08.013.16.028.244.043l.17.034c.079.017.156.035.232.054l.045.011.121.03c.078.021.155.044.245.07l.056.016.095.028c.1.032.2.066.3.1.074.026.148.055.219.082l.052.02.166.065.141.062.049.022.046.02.128.059c.067.032.134.065.2.1l.15.077.208.113.131.076c.072.042.144.085.214.129l.067.043.035.023c.079.051.157.1.242.16l.024.017h.014a8.878 8.878 0 011.348 1.159l.011.013.014.014.014.015a8.8 8.8 0 012.375 5.624l.131 2.939 2.22-1.93a5.916 5.916 0 013.3-1.432c.2-.02.41-.031.613-.031a6.1 6.1 0 01.611.031 5.943 5.943 0 015.355 5.925v.099l-.014 1.707 1.681-.3a5.179 5.179 0 01.893-.079 5.119 5.119 0 015.114 5.114 5.13 5.13 0 01-4.729 5.1l-.1.009h-.006c-.092 0-.185.008-.278.008s-.186 0-.278-.008H32.15c-.108 0-.216.009-.325.009H10.234a8.817 8.817 0 01-8.807-8.807c0-.15 0-.3.012-.456v-.058l.007-.093v-.04c.005-.083.011-.166.019-.248 0-.03.007-.059.011-.088l.012-.1.009-.078c.007-.058.013-.116.022-.173.005-.037.012-.073.019-.109l.016-.088.013-.08.027-.152c.009-.052.018-.078.026-.117l.02-.085.019-.082.031-.136c.01-.042.024-.086.036-.129l.023-.081.021-.076.037-.129.047-.141.026-.076.023-.07.04-.119c.021-.059.044-.116.067-.174l.017-.043.03-.078c.013-.033.025-.066.04-.1.024-.058.05-.115.076-.173l.023-.051.03-.066.043-.1.1-.2.016-.031.03-.06.045-.089c.041-.076.084-.15.128-.226l.036-.063.043-.075c.046-.077.094-.152.143-.229l.036-.057.043-.068c.052-.078.106-.154.161-.231l.028-.039.051-.071c.057-.078.116-.154.176-.23l.034-.044.042-.053c.063-.078.128-.154.2-.232l.034-.04.039-.045c.069-.078.14-.153.208-.224l.041-.043.033-.035c.075-.076.152-.151.227-.223l.04-.038.029-.028a7.38 7.38 0 01.246-.219l.039-.034.025-.022c.086-.073.173-.144.271-.22l.019-.015.031-.024c.093-.071.188-.141.276-.2l.044-.031.012-.009.293-.2.053-.034c.1-.066.21-.129.308-.186l.048-.027c.109-.062.22-.122.331-.178h.014l.023-.012c.11-.055.227-.111.344-.164l.04-.018c.117-.052.236-.1.363-.152h.013c.124-.049.249-.094.384-.14h.011c.121-.041.25-.081.385-.12h.028c.128-.036.26-.07.4-.1s.273-.06.408-.084h.021c.138-.024.275-.045.408-.063h.023c.136-.018.276-.032.409-.043h.015c.136-.011.276-.018.414-.023h1.147l.221-1.114a8.756 8.756 0 01.758-2.076l.007-.013c.052-.1.107-.2.158-.291l.013-.023L11 5.158l1.241.693c.055-.1.111-.191.17-.284l.027-.04.009-.016a8.9 8.9 0 01.844-1.12l.013-.015q.1-.111.2-.218l.033-.035.029-.031c.065-.067.132-.133.2-.2l.082-.078c.065-.062.131-.123.2-.18l.054-.047.033-.028c.069-.059.138-.119.215-.182l.028-.022.044-.034a8.748 8.748 0 01.719-.514l.053-.034.077-.049a8.22 8.22 0 01.158-.094l.03-.018.154-.089.185-.1.172-.088c.059-.029.118-.059.183-.089l.187-.084.033-.015.144-.062c.071-.029.143-.057.22-.086l.065-.025.082-.032a9.15 9.15 0 01.37-.126l.033-.009.077-.022c.094-.028.189-.056.287-.082l.086-.021.062-.015c.083-.02.166-.04.249-.058l.166-.033c.081-.016.162-.03.246-.044l.165-.025a8.64 8.64 0 01.251-.032l.05-.005.116-.013c.093-.009.187-.015.28-.021l.075-.005h.064c.154-.007.293-.011.426-.011m0-1.42c-.165 0-.329 0-.493.013l-.16.011c-.11.007-.219.014-.328.025l-.187.02c-.1.011-.2.024-.3.038l-.193.03c-.1.015-.191.033-.286.051l-.19.038c-.1.02-.193.043-.29.067l-.175.043a4.432 4.432 0 00-.335.1l-.121.035a10.96 10.96 0 00-.432.146l-.177.068c-.086.033-.171.065-.255.1-.068.028-.134.058-.2.087s-.147.065-.221.1l-.209.1-.2.1-.212.114-.183.105c-.073.043-.146.085-.218.13-.051.031-.1.064-.151.1q-.433.278-.834.6l-.089.07c-.082.066-.161.135-.241.2l-.1.087c-.079.07-.156.141-.232.212l-.093.088a8.277 8.277 0 00-.23.229l-.071.074c-.081.085-.161.17-.239.258l-.021.025a10.259 10.259 0 00-1 1.329l-.005.009c-.071.113-.14.228-.207.345l-.018.032q-.1.174-.191.352l-.012.022a10.148 10.148 0 00-.877 2.405v.008h-.005q-.252.008-.5.028h-.011q-.249.02-.495.052h-.011q-.245.032-.486.075H8.39q-.24.043-.476.1H7.9q-.234.055-.465.12h-.017q-.229.065-.453.141l-.021.007q-.221.075-.438.16l-.026.011q-.214.084-.422.177l-.031.014q-.205.092-.406.194l-.038.02q-.2.1-.387.208l-.046.026q-.187.107-.368.221l-.051.033q-.177.113-.349.233l-.058.041a9.97 9.97 0 00-.329.243l-.064.051q-.157.122-.309.251l-.071.062q-.146.126-.287.257l-.077.074c-.09.086-.18.173-.266.261l-.083.086a10.28 10.28 0 00-.246.265l-.085.1a9.388 9.388 0 00-.226.267l-.089.113c-.07.088-.139.177-.205.268l-.092.129c-.062.088-.125.177-.185.267-.031.047-.061.1-.092.144a9.124 9.124 0 00-.167.266l-.092.159a5.747 5.747 0 00-.238.439c-.044.086-.089.173-.131.261-.03.062-.057.126-.086.19-.039.085-.078.171-.115.258-.028.067-.054.136-.081.2l-.1.254c-.033.086-.05.148-.075.222s-.057.164-.082.248-.045.159-.068.239-.047.16-.067.241-.039.17-.059.255-.037.157-.053.236-.033.18-.048.271-.029.151-.04.228c-.015.1-.025.195-.037.292-.009.072-.019.143-.026.215-.011.111-.018.223-.026.334 0 .06-.011.12-.013.18q-.013.259-.013.521a10.227 10.227 0 0010.227 10.228h21.591c.129 0 .256 0 .384-.01h10.912c.117.006.234.01.352.01s.236 0 .352-.01h.138v-.01A6.533 6.533 0 0050 21.875a6.534 6.534 0 00-6.534-6.534 6.573 6.573 0 00-1.139.1v-.1a7.387 7.387 0 00-6.631-7.348 7.537 7.537 0 00-.755-.038 7.539 7.539 0 00-.755.038A7.351 7.351 0 0030.1 9.765a10.19 10.19 0 00-2.788-6.564 10.246 10.246 0 00-1.579-1.361l-.052-.038a9.67 9.67 0 00-.27-.178l-.119-.076-.25-.151-.151-.087q-.119-.067-.24-.131l-.175-.089a7.156 7.156 0 00-.433-.204l-.223-.1c-.075-.034-.168-.067-.253-.1s-.171-.065-.257-.1a10.39 10.39 0 00-.352-.119c-.06-.019-.12-.036-.18-.053-.093-.027-.185-.055-.278-.079l-.195-.048a13.427 13.427 0 00-.273-.063l-.2-.04a12.485 12.485 0 00-.279-.05l-.2-.031c-.1-.014-.2-.026-.293-.037l-.19-.021c-.109-.011-.218-.018-.327-.025-.054 0-.108-.008-.163-.011a10.196 10.196 0 00-.5-.013z"/></svg>